<svg width="34" height="36" viewBox="0 0 34 36" fill="none" xmlns="http://www.w3.org/2000/svg">
<path d="M16.9997 0.5C7.79542 0.5 0.333008 8.38284 0.333008 18.1056C0.333008 26.8917 6.42695 34.1742 14.3961 35.5V23.1959H10.1623V18.1056H14.3961V14.2267C14.3961 9.8108 16.8847 7.37569 20.69 7.37569C22.5136 7.37569 24.4238 7.71904 24.4238 7.71904V12.0487H22.3169C20.25 12.0487 19.6033 13.408 19.6033 14.8007V18.1021H24.2221L23.4837 23.1924H19.6033V35.4965C27.5724 34.1777 33.6663 26.8935 33.6663 18.1056C33.6663 8.38284 26.2039 0.5 16.9997 0.5V0.5Z" fill="#F3E738"/>
</svg>
