<svg xmlns="http://www.w3.org/2000/svg" aria-hidden="true" style="position:absolute;width:0;height:0;overflow:hidden">
  <defs>
    <symbol id="icon-logo" viewBox="0 0 39 32">
      <path d="M19.679 28.664c-6.922 0-12.664-5.742-12.664-12.664 0-.36.017-.717.047-1.07l10.596.661-4.583 3.166a.24.24 0 0 0 .137.437h18.713c-1.439 5.408-6.425 9.469-12.246 9.469zm0-25.328c6.922 0 12.664 5.742 12.664 12.664 0 .357-.016.711-.046 1.062l-10.586-.673 4.594-3.148a.24.24 0 0 0-.136-.437H7.434c1.439-5.408 6.425-9.469 12.246-9.469zm18.162 14.079-3.465-.22c.032-.394.048-.792.048-1.194 0-8.144-6.602-14.746-14.746-14.746-7.046 0-12.938 4.943-14.398 11.551H2.559a.553.553 0 0 0-.438.216l-.81 1.118a.277.277 0 0 0 .219.447l3.451.215c-.032.396-.049.796-.049 1.2 0 8.144 6.602 14.746 14.746 14.746 7.047 0 12.938-4.943 14.398-11.551h2.734a.551.551 0 0 0 .438-.216l.81-1.118a.277.277 0 0 0-.219-.447z"/>
    </symbol>
    <symbol id="icon-arrow-left" viewBox="0 0 19 32">
      <path d="M1.251 15.386a2.087 2.087 0 0 0 .115 2.949l13.787 12.756a2.087 2.087 0 0 0 2.835-3.064L5.733 16.689 17.071 4.434A2.087 2.087 0 0 0 14.008 1.6L1.252 15.387zm4.231-.776-2.78.108.162 4.171 2.78-.108-.162-4.171z"/>
    </symbol>
    <symbol id="icon-arrow-right" viewBox="0 0 19 32">
      <path d="M17.414 17.414a2 2 0 0 0 0-2.829L4.686 1.857a2 2 0 1 0-2.828 2.828l11.314 11.314L1.858 27.313a2 2 0 1 0 2.828 2.828l12.728-12.728zM13.333 18H16v-4h-2.667v4z"/>
    </symbol>
    <symbol id="icon-facebook" viewBox="0 0 30 32">
      <path d="M15.111.444C6.929.444.296 7.451.296 16.093c0 7.81 5.417 14.283 12.501 15.462V20.618H9.034v-4.525h3.763v-3.448c0-3.925 2.212-6.09 5.595-6.09 1.621 0 3.319.305 3.319.305v3.849h-1.873c-1.837 0-2.412 1.208-2.412 2.446v2.935h4.106l-.656 4.525h-3.449v10.937c7.084-1.172 12.5-7.647 12.5-15.459 0-8.642-6.633-15.649-14.815-15.649z"/>
    </symbol>
    <symbol id="icon-twitter" viewBox="0 0 30 32">
      <path d="M15.111.444C6.93.444.296 7.409.296 16S6.93 31.556 15.111 31.556 29.926 24.591 29.926 16 23.292.444 15.111.444zM22.23 12.17c.01.163.01.333.01.5 0 5.097-3.697 10.969-10.453 10.969-2.083 0-4.014-.635-5.641-1.729.298.035.582.049.886.049 1.72 0 3.3-.611 4.56-1.646-1.614-.035-2.97-1.146-3.433-2.674.565.087 1.075.087 1.657-.069-.831-.177-1.578-.651-2.114-1.341s-.828-1.553-.826-2.444v-.049a3.554 3.554 0 0 0 1.657.49c-.503-.352-.916-.829-1.201-1.389s-.435-1.185-.436-1.82c0-.719.179-1.375.499-1.944.922 1.192 2.073 2.167 3.378 2.862s2.734 1.093 4.195 1.17c-.519-2.622 1.346-4.743 3.588-4.743 1.058 0 2.011.465 2.682 1.215a7.025 7.025 0 0 0 2.331-.927 3.811 3.811 0 0 1-1.614 2.122 6.98 6.98 0 0 0 2.116-.601 7.902 7.902 0 0 1-1.842 2z"/>
    </symbol>
    <symbol id="icon-youtube" viewBox="0 0 30 32">
      <path d="m17.585 15.729-3.466-1.698c-.303-.147-.551.018-.551.369v3.199c0 .352.248.517.551.369l3.464-1.698c.304-.149.304-.392.002-.541zM15.111.444C6.929.444.296 7.408.296 16s6.633 15.556 14.815 15.556c8.182 0 14.815-6.964 14.815-15.556S23.293.444 15.111.444zm0 21.875c-7.583 0-7.716-.718-7.716-6.319s.133-6.319 7.716-6.319 7.716.718 7.716 6.319-.133 6.319-7.716 6.319z"/>
    </symbol>
    <symbol id="icon-instagram" viewBox="0 0 32 32">
      <path d="M16 2.881c4.275 0 4.781.019 6.462.094 1.563.069 2.406.331 2.969.55a4.952 4.952 0 0 1 1.837 1.194 5.015 5.015 0 0 1 1.2 1.838c.219.563.481 1.412.55 2.969.075 1.688.094 2.194.094 6.463s-.019 4.781-.094 6.463c-.069 1.563-.331 2.406-.55 2.969a4.94 4.94 0 0 1-1.194 1.837 5.02 5.02 0 0 1-1.837 1.2c-.563.219-1.413.481-2.969.55-1.688.075-2.194.094-6.463.094s-4.781-.019-6.463-.094c-1.563-.069-2.406-.331-2.969-.55a4.952 4.952 0 0 1-1.838-1.194 5.02 5.02 0 0 1-1.2-1.837c-.219-.563-.481-1.413-.55-2.969-.075-1.688-.094-2.194-.094-6.463s.019-4.781.094-6.463c.069-1.563.331-2.406.55-2.969a4.964 4.964 0 0 1 1.194-1.838 5.015 5.015 0 0 1 1.838-1.2c.563-.219 1.412-.481 2.969-.55 1.681-.075 2.188-.094 6.463-.094zM16 0c-4.344 0-4.887.019-6.594.094-1.7.075-2.869.35-3.881.744-1.056.412-1.95.956-2.837 1.85a7.833 7.833 0 0 0-1.85 2.831C.444 6.538.169 7.7.094 9.4.019 11.113 0 11.656 0 16s.019 4.887.094 6.594c.075 1.7.35 2.869.744 3.881.413 1.056.956 1.95 1.85 2.837a7.82 7.82 0 0 0 2.831 1.844c1.019.394 2.181.669 3.881.744 1.706.075 2.25.094 6.594.094s4.888-.019 6.594-.094c1.7-.075 2.869-.35 3.881-.744 1.05-.406 1.944-.956 2.831-1.844s1.438-1.781 1.844-2.831c.394-1.019.669-2.181.744-3.881.075-1.706.094-2.25.094-6.594s-.019-4.887-.094-6.594c-.075-1.7-.35-2.869-.744-3.881a7.506 7.506 0 0 0-1.831-2.844A7.82 7.82 0 0 0 26.482.843C25.463.449 24.301.174 22.601.099c-1.712-.081-2.256-.1-6.6-.1z"/>
      <path d="M16 7.781c-4.537 0-8.219 3.681-8.219 8.219s3.681 8.219 8.219 8.219 8.219-3.681 8.219-8.219A8.221 8.221 0 0 0 16 7.781zm0 13.55a5.331 5.331 0 1 1 0-10.663 5.331 5.331 0 0 1 0 10.663zM26.462 7.456a1.919 1.919 0 1 1-3.838 0 1.919 1.919 0 0 1 3.838 0z"/>
    </symbol>
  </defs>
</svg>
