<svg width="34" height="36" viewBox="0 0 34 36" fill="none" xmlns="http://www.w3.org/2000/svg">
<path fill-rule="evenodd" clip-rule="evenodd" d="M0.333008 18C0.333008 8.3349 7.79481 0.5 16.9997 0.5C26.2045 0.5 33.6663 8.3349 33.6663 18C33.6663 27.6651 26.2045 35.5 16.9997 35.5C7.79481 35.5 0.333008 27.6651 0.333008 18ZM13.3504 14.1673C14.312 13.1576 15.6163 12.5904 16.9762 12.5904C18.3361 12.5904 19.6403 13.1576 20.6019 14.1673C21.5635 15.177 22.1037 16.5464 22.1037 17.9743C22.1037 19.4022 21.5635 20.7716 20.6019 21.7813C19.6403 22.7909 18.3361 23.3582 16.9762 23.3582C15.6163 23.3582 14.312 22.7909 13.3504 21.7813C12.3889 20.7716 11.8486 19.4022 11.8486 17.9743C11.8486 16.5464 12.3889 15.177 13.3504 14.1673ZM14.6207 20.4463C15.2454 21.1023 16.0927 21.4708 16.9762 21.4708C17.8596 21.4708 18.7069 21.1023 19.3316 20.4463C19.9563 19.7904 20.3073 18.9008 20.3073 17.9731C20.3073 17.0455 19.9563 16.1558 19.3316 15.4999C18.7069 14.8439 17.8596 14.4754 16.9762 14.4754C16.0927 14.4754 15.2454 14.8439 14.6207 15.4999C13.996 16.1558 13.645 17.0455 13.645 17.9731C13.645 18.9008 13.996 19.7904 14.6207 20.4463ZM22.3077 13.6477C22.9679 13.6477 23.5031 13.0858 23.5031 12.3926C23.5031 11.6994 22.9679 11.1374 22.3077 11.1374C21.6475 11.1374 21.1123 11.6994 21.1123 12.3926C21.1123 13.0858 21.6475 13.6477 22.3077 13.6477ZM25.2882 9.26038C25.791 9.78808 26.1833 10.4202 26.44 11.1163C26.736 11.9421 26.8939 12.8153 26.9069 13.6976C26.969 14.8119 26.969 15.1728 26.969 18.0173C26.969 20.8618 26.9545 21.2169 26.9069 22.337C26.8902 23.2079 26.7339 24.0672 26.4422 24.8822C26.1852 25.5782 25.7928 26.2103 25.2901 26.7382C24.7873 27.266 24.1854 27.678 23.5225 27.9479C22.7465 28.2531 21.9269 28.4181 21.0985 28.4358C20.0395 28.4998 19.6924 28.4998 16.9847 28.4998H16.9845C14.2766 28.4998 13.9383 28.4847 12.8705 28.4358C12.0403 28.4071 11.2209 28.2299 10.4475 27.9118C9.7845 27.6424 9.18228 27.2307 8.67935 26.703C8.17642 26.1753 7.78385 25.5433 7.52672 24.8473C7.23509 24.0311 7.07873 23.1718 7.0621 22.3009C7 21.1866 7 20.8245 7 17.9812C7 15.1367 7.01442 14.7816 7.0621 13.6615C7.0783 12.7916 7.23542 11.9308 7.52672 11.1163C7.78313 10.42 8.17532 9.78774 8.67813 9.25999C9.18093 8.73225 9.78325 8.32069 10.4464 8.05173C11.2213 7.74504 12.0404 7.57965 12.8683 7.5627C13.9273 7.49983 14.2743 7.49983 16.9823 7.49983C19.6902 7.49983 20.0284 7.5138 21.0963 7.5627C21.9248 7.58057 22.7444 7.74592 23.5203 8.05173C24.1833 8.321 24.7855 8.73267 25.2882 9.26038ZM24.7445 24.1801C24.9656 23.5505 25.0822 22.8857 25.0894 22.2147L25.1016 22.2159C25.1493 21.1028 25.1493 20.7977 25.1493 17.9614C25.1493 15.1239 25.1371 14.813 25.0894 13.7058C25.0791 13.0423 24.9625 12.3853 24.7445 11.7625C24.5779 11.3096 24.3229 10.8984 23.996 10.5551C23.669 10.2118 23.2774 9.94409 22.8461 9.76912C22.2532 9.5375 21.6268 9.415 20.9942 9.40701C19.9219 9.34298 19.6447 9.34298 16.9423 9.34298C14.24 9.34298 13.9439 9.35695 12.8893 9.40701C12.2573 9.41629 11.6314 9.53875 11.0386 9.76912C10.1637 10.1208 9.47061 10.8438 9.1324 11.7625C8.91135 12.3917 8.7947 13.0561 8.78754 13.7267C8.72876 14.855 8.72876 15.1449 8.72876 17.9824C8.72876 20.8187 8.73985 21.1307 8.78754 22.2369C8.79786 22.9003 8.91444 23.5573 9.1324 24.1801C9.29966 24.6338 9.55575 25.0455 9.88411 25.3887C10.2125 25.7318 10.6058 25.9988 11.0386 26.1723C11.6311 26.4038 12.2572 26.5263 12.8893 26.5344C13.9627 26.5985 14.2389 26.5985 16.9423 26.5985C19.6436 26.5985 19.9408 26.5857 20.9942 26.5344C21.6267 26.5259 22.2531 26.4034 22.8461 26.1723C23.2774 25.9977 23.6691 25.7303 23.9961 25.3872C24.323 25.0441 24.578 24.6329 24.7445 24.1801Z" fill="#F3E738"/>
</svg>
