<svg width="34" height="36" viewBox="0 0 34 36" fill="none" xmlns="http://www.w3.org/2000/svg">
<path d="M16.9997 0.5C7.79581 0.5 0.333008 8.33594 0.333008 18C0.333008 27.6641 7.79581 35.5 16.9997 35.5C26.2035 35.5 33.6663 27.6641 33.6663 18C33.6663 8.33594 26.2035 0.5 16.9997 0.5ZM25.0093 13.6914C25.0205 13.875 25.0205 14.0664 25.0205 14.2539C25.0205 19.9883 20.8613 26.5937 13.2608 26.5937C10.9171 26.5937 8.74447 25.8789 6.91411 24.6484C7.24893 24.6875 7.56887 24.7031 7.91113 24.7031C9.84566 24.7031 11.6239 24.0156 13.0413 22.8516C11.2259 22.8125 9.70057 21.5625 9.17973 19.8437C9.81589 19.9414 10.3888 19.9414 11.0436 19.7656C10.1088 19.5662 9.26855 19.0331 8.66566 18.257C8.06276 17.4808 7.73437 16.5094 7.73628 15.5078V15.4531C8.28316 15.7773 8.92676 15.9766 9.60012 16.0039C9.03406 15.6078 8.56983 15.0711 8.2486 14.4415C7.92737 13.8119 7.75906 13.1088 7.7586 12.3945C7.7586 11.5859 7.9595 10.8477 8.32036 10.207C9.35794 11.5482 10.6527 12.6451 12.1205 13.4264C13.5882 14.2078 15.1961 14.6561 16.8397 14.7422C16.2556 11.793 18.3538 9.40625 20.8762 9.40625C22.0666 9.40625 23.1381 9.92969 23.8933 10.7734C24.8271 10.5898 25.7199 10.2227 26.516 9.73047C26.2073 10.7344 25.5599 11.582 24.7006 12.1172C25.5339 12.0234 26.3375 11.7812 27.0815 11.4414C26.5198 12.3086 25.8166 13.0781 25.0093 13.6914V13.6914Z" fill="#F3E738"/>
</svg>
