<svg width="34" height="36" viewBox="0 0 34 36" fill="none" xmlns="http://www.w3.org/2000/svg">
<path d="M19.7827 17.6956L15.8834 15.7852C15.5431 15.6193 15.2636 15.8052 15.2636 16.2008V19.7992C15.2636 20.1948 15.5431 20.3807 15.8834 20.2148L19.7809 18.3044C20.1229 18.1367 20.1229 17.8633 19.7827 17.6956ZM16.9997 0.5C7.79481 0.5 0.333008 8.3349 0.333008 18C0.333008 27.6651 7.79481 35.5 16.9997 35.5C26.2045 35.5 33.6663 27.6651 33.6663 18C33.6663 8.3349 26.2045 0.5 16.9997 0.5ZM16.9997 25.1094C8.46842 25.1094 8.31912 24.3018 8.31912 18C8.31912 11.6982 8.46842 10.8906 16.9997 10.8906C25.5309 10.8906 25.6802 11.6982 25.6802 18C25.6802 24.3018 25.5309 25.1094 16.9997 25.1094Z" fill="#F3E738"/>
</svg>
